<svg width="21" height="25" viewBox="0 0 21 25" fill="none" xmlns="http://www.w3.org/2000/svg">
<path d="M14.4114 16.573L16.2742 18.9852L16.8094 19.6781L17.0965 20.0499L18.1371 21.3974L20 23.8096" stroke="#B4EEF1" stroke-width="1.72935" stroke-linecap="round"/>
<path fill-rule="evenodd" clip-rule="evenodd" d="M0 9.00705C0 1.80141 6.0047 0 9.00705 0C12.0094 0 18.0141 1.80141 18.0141 9.00705C18.0141 16.2127 12.0094 18.0141 9.00705 18.0141C6.0047 18.0141 0 16.2127 0 9.00705ZM2 9.00705C2 16 6.5 16 9.00705 16C11.5 16 16 15.7323 16 9.00705C16 2.28179 11.5 2 9.00705 2C6.5 2 2 2.28179 2 9.00705Z" fill="#B4EEF1"/>
</svg>
