<svg width="40" height="50" viewBox="0 0 40 50" fill="none" xmlns="http://www.w3.org/2000/svg">
<path d="M1 11.6763H38.125V44.8013C38.125 47.0105 36.3341 48.8013 34.125 48.8013H5C2.79086 48.8013 1 47.0105 1 44.8013V11.6763Z" fill="white" stroke="#679DB5" stroke-width="2"/>
<path d="M0.500014 9.5V7V5.5V5.47987C0.500898 5.16639 0.545465 4.99603 0.603888 4.89478C0.660477 4.7967 0.777582 4.68161 1.14552 4.59989C1.44189 4.53407 1.85652 4.50074 2.43784 4.5H4.87501H9.75001H14.625H19.5H24.375H29.25H34.125H36.5625L36.5711 4.5C36.5711 4.5 36.5711 4.5 36.5712 4.5C36.5712 4.5 36.5712 4.5 36.5712 4.5C37.1482 4.50017 37.5592 4.53356 37.8528 4.59896C38.2187 4.68047 38.3357 4.79542 38.3927 4.89347C38.4535 4.99817 38.4988 5.17436 38.5 5.50059C38.5 5.50095 38.5 5.50132 38.5 5.50168L38.5 7V9.5H34.125H29.25H24.375H19.5H14.625H9.75001H4.87501H0.500014Z" fill="white" stroke="#679DB5"/>
<path d="M14 0.5H25C25.8284 0.5 26.5 1.17157 26.5 2V2.5L26.5 3.74923C26.5 3.74943 26.5 3.74963 26.5 3.74983C26.4995 4.03715 26.481 4.21865 26.4498 4.33525C26.4321 4.40117 26.4146 4.42919 26.4075 4.43882C26.4029 4.44488 26.3986 4.44988 26.3832 4.45728C26.3483 4.47415 26.2611 4.49986 26.0659 4.5L14 0.5ZM14 0.5C13.1716 0.5 12.5 1.17157 12.5 2V2.5V3.75V3.76702C12.5004 4.0445 12.5187 4.22058 12.5489 4.33392C12.5665 4.40022 12.584 4.42821 12.5911 4.43769C12.5955 4.44361 12.5999 4.44871 12.6157 4.4563C12.6518 4.47368 12.7405 4.49941 12.9382 4.5H13.875H15.75H19.5H23.25H25.125H26.0625H26.0657L14 0.5Z" stroke="#679DB5"/>
<line x1="12.5926" y1="22.7695" x2="12.5926" y2="39.8423" stroke="#679DB5" stroke-width="2"/>
<line x1="20.4176" y1="22.7695" x2="20.4176" y2="39.8423" stroke="#679DB5" stroke-width="2"/>
<line x1="27.5312" y1="22.7695" x2="27.5312" y2="39.8423" stroke="#679DB5" stroke-width="2"/>
</svg>
